<?xml version="1.0" encoding="UTF-8" standalone="no"?>
<!DOCTYPE svg PUBLIC "-//W3C//DTD SVG 1.1//EN" "http://www.w3.org/Graphics/SVG/1.1/DTD/svg11.dtd">
<svg width="100%" height="100%" viewBox="0 0 900 320" version="1.1" xmlns="http://www.w3.org/2000/svg" xmlns:xlink="http://www.w3.org/1999/xlink" xml:space="preserve" xmlns:serif="http://www.serif.com/" style="fill-rule:evenodd;clip-rule:evenodd;stroke-linejoin:round;stroke-miterlimit:2;">
    <rect x="0" y="0" width="900" height="320" style="fill:rgb(24,115,146);"/>
    <g transform="matrix(0.388929,0,0,0.388929,308.187,44.1369)">
        <g transform="matrix(4.16667,0,0,4.16667,0,0)">
            <path d="M315.524,147.409C309.578,131.429 273.21,123.797 266.842,119.166C258.665,113.22 261.267,93.524 261.267,93.524L247.889,93.876L234.51,93.524C234.51,93.524 237.111,113.22 228.936,119.166C222.567,123.797 186.199,131.429 180.253,147.409C174.307,163.389 172.077,177.511 172.077,177.511L323.7,177.511C323.7,177.511 321.47,163.389 315.524,147.409Z" style="fill:rgb(253,214,186);fill-rule:nonzero;"/>
        </g>
        <g transform="matrix(4.16667,0,0,4.16667,0,0)">
            <path d="M232.031,115.496C238.294,114.856 244.59,113.586 250.043,110.536C254.018,108.313 257.596,105.688 260.919,102.733C260.721,97.672 261.267,93.524 261.267,93.524L247.889,93.876L234.51,93.524C234.51,93.524 236.361,107.542 232.031,115.496Z" style="fill:rgb(232,192,168);fill-rule:nonzero;"/>
        </g>
        <g transform="matrix(4.16667,0,0,4.16667,0,0)">
            <path d="M316.579,147.188C310.787,131.622 276.345,123.92 268.275,119.21C267.729,119.527 267.16,119.817 266.594,120.112L248.863,140.095L224.346,121.17C212.217,126.015 185.366,133.607 180.313,147.188C174.323,163.285 172.077,177.511 172.077,177.511L324.815,177.511C324.815,177.511 322.569,163.285 316.579,147.188Z" style="fill:rgb(143,227,207);fill-rule:nonzero;"/>
            <clipPath id="_clip1">
                <path d="M316.579,147.188C310.787,131.622 276.345,123.92 268.275,119.21C267.729,119.527 267.16,119.817 266.594,120.112L248.863,140.095L224.346,121.17C212.217,126.015 185.366,133.607 180.313,147.188C174.323,163.285 172.077,177.511 172.077,177.511L324.815,177.511C324.815,177.511 322.569,163.285 316.579,147.188Z" clip-rule="nonzero"/>
            </clipPath>
            <g clip-path="url(#_clip1)">
                <path d="M173.197,167.429L324.197,167.429L324.197,164.429L173.197,164.429" style="fill:rgb(134,254,171);fill-rule:nonzero;"/>
                <path d="M173.197,171.095L324.197,171.095L324.197,170.095L173.197,170.095" style="fill:rgb(245,143,134);fill-rule:nonzero;"/>
            </g>
        </g>
        <g transform="matrix(4.16667,0,0,4.16667,0,0)">
            <path d="M243.197,129.095L248.863,140.095L252.863,127.762L255.863,133.762L248.53,141.429L240.197,134.095L243.197,129.095Z" style="fill:rgb(143,227,207);fill-rule:nonzero;"/>
        </g>
        <g transform="matrix(4.16667,0,0,4.16667,0,0)">
            <path d="M222.863,121.429L237.863,143.095L243.197,129.095L227.53,113.429L222.863,121.429Z" style="fill:rgb(134,254,171);fill-rule:nonzero;"/>
        </g>
        <g transform="matrix(4.16667,0,0,4.16667,0,0)">
            <path d="M272.197,119.762L258.196,141.762L252.863,127.762L268.53,112.095L272.197,119.762Z" style="fill:rgb(134,254,171);fill-rule:nonzero;"/>
        </g>
        <g transform="matrix(4.16667,0,0,4.16667,0,0)">
            <path d="M225.424,62.819C223.263,56.116 218.147,57.668 217.668,57.829C217.166,57.888 211.877,58.673 212.791,65.657C213.71,72.682 217.786,76.489 221.608,75.371C225.541,74.747 227.598,69.562 225.424,62.819Z" style="fill:rgb(232,192,168);fill-rule:nonzero;"/>
        </g>
        <g transform="matrix(4.16667,0,0,4.16667,0,0)">
            <path d="M267.349,62.152C269.51,55.449 274.627,57.001 275.106,57.163C275.608,57.221 280.897,58.007 279.983,64.99C279.064,72.015 274.988,75.823 271.165,74.704C267.232,74.08 265.176,68.896 267.349,62.152Z" style="fill:rgb(232,192,168);fill-rule:nonzero;"/>
        </g>
        <g transform="matrix(4.16667,0,0,4.16667,0,0)">
            <path d="M274.144,52.274C271.466,22.886 249.125,24.532 247.018,24.754C244.911,24.532 222.57,22.886 219.892,52.274C217.198,81.836 230.366,101.143 247.018,100.081C263.67,101.143 276.837,81.836 274.144,52.274Z" style="fill:rgb(253,214,186);fill-rule:nonzero;"/>
        </g>
        <g transform="matrix(4.16667,0,0,4.16667,0,0)">
            <path d="M250.21,62.308C250.643,63.236 250.971,64.179 251.251,65.129C251.405,65.602 251.508,66.082 251.639,66.558C251.766,67.035 251.851,67.518 251.959,67.997C252.164,68.958 252.318,69.926 252.442,70.898C252.576,71.869 252.64,72.85 252.709,73.83L252.745,74.338L252.454,74.561C251.217,75.507 249.952,76.425 248.501,77.145C249.299,75.735 250.283,74.522 251.295,73.337L251.041,74.068C250.832,73.108 250.618,72.149 250.476,71.179C250.322,70.211 250.199,69.239 250.126,68.259C250.096,67.769 250.042,67.281 250.03,66.788C250.023,66.294 249.987,65.804 250.002,65.307C250.005,64.317 250.055,63.32 250.21,62.308Z" style="fill:rgb(232,192,168);fill-rule:nonzero;"/>
        </g>
        <g transform="matrix(4.16667,0,0,4.16667,0,0)">
            <path d="M234.082,81.47L260.595,81.192C260.595,81.192 249.993,91.626 234.082,81.47Z" style="fill:white;fill-rule:nonzero;"/>
        </g>
        <g transform="matrix(4.16667,0,0,4.16667,0,0)">
            <path d="M240.881,86.795C240.881,86.795 241.163,86.861 241.647,86.999C242.131,87.116 242.815,87.397 243.65,87.531C244.065,87.608 244.512,87.691 244.977,87.792C245.435,87.921 245.959,87.886 246.472,87.96C246.992,88.008 247.527,88.081 248.073,88.035C248.617,88.014 249.172,88.017 249.722,87.978C250.268,87.891 250.813,87.804 251.35,87.718C251.898,87.67 252.389,87.436 252.893,87.309C253.387,87.149 253.89,87.051 254.31,86.817C254.743,86.612 255.16,86.429 255.548,86.261C255.948,86.111 256.26,85.88 256.56,85.708C256.857,85.528 257.114,85.371 257.328,85.242C257.759,84.985 258.018,84.846 258.018,84.846C258.018,84.846 257.819,85.051 257.449,85.395C257.262,85.566 257.035,85.774 256.773,86.013C256.508,86.247 256.23,86.551 255.841,86.754C255.471,86.986 255.066,87.237 254.629,87.492C254.208,87.782 253.699,87.948 253.181,88.142C252.921,88.238 252.657,88.336 252.39,88.435L251.985,88.583L251.558,88.661C250.984,88.764 250.402,88.868 249.819,88.973C249.23,89.004 248.638,88.99 248.057,89C247.474,89.041 246.912,88.909 246.367,88.832C245.824,88.73 245.293,88.701 244.812,88.518C244.327,88.368 243.874,88.213 243.46,88.071C243.035,87.95 242.687,87.767 242.379,87.598C242.068,87.436 241.798,87.295 241.575,87.179C241.13,86.943 240.881,86.795 240.881,86.795Z" style="fill:rgb(232,192,168);fill-rule:nonzero;"/>
        </g>
        <g transform="matrix(4.16667,0,0,4.16667,0,0)">
            <path d="M229.131,40.836C229.131,40.836 237.197,51.429 249.863,53.096L246.863,48.762C246.863,48.762 251.863,52.429 260.53,54.096C260.53,54.096 262.197,48.096 258.196,41.762C258.196,41.762 263.863,54.096 270.53,58.762C270.53,58.762 273.197,50.096 269.863,45.096C269.863,45.096 271.988,47.451 278.322,55.118C278.322,55.118 285.413,33.606 268.079,21.939C250.746,10.272 232.246,20.799 226.246,27.132C226.246,27.132 215.571,23.526 213.118,37.807C211.088,49.634 215.571,58.724 215.571,58.724C215.571,58.724 219.321,56.25 219.321,63.917L220.197,71.762L222.53,71.762L222.863,56.096C222.863,56.096 228.797,53.836 229.131,40.836Z" style="fill:rgb(45,35,52);fill-rule:nonzero;"/>
        </g>
        <g transform="matrix(4.16667,0,0,4.16667,0,0)">
            <path d="M271.27,71.327C272.109,71.299 272.949,71.273 273.788,71.245C276.084,63.017 274.53,48.096 274.53,48.096C274.53,48.096 266.741,32.613 269.863,45.096C272.443,55.408 271.553,68.121 271.27,71.327Z" style="fill:rgb(45,35,52);fill-rule:nonzero;"/>
        </g>
    </g>
    <g transform="matrix(1.63648,0,0,1.63648,-155.935,-44.4848)">
        <text x="135.616px" y="104.007px" style="font-family:'BritannicBold', 'Britannic Bold', sans-serif;font-size:50px;fill:white;">AWALUDDIN</text>
    </g>
    <g transform="matrix(0.267004,0,0,0.267004,26.002,133.609)">
        <text x="144.322px" y="221.819px" style="font-family:'ArialRoundedMTBold', 'Arial Rounded MT Bold', sans-serif;font-size:63.435px;fill:white;">F<tspan x="189.171px 243.901px 288.75px 333.599px 355.992px 404.836px 447.022px 497.601px 551.092px 604.583px 626.976px 680.467px 729.311px 779.488px 828.333px 870.022px 926.797px 975.641px 1024.49px 1076.64px 1103.03px 1125.43px 1170.28px 1225.01px 1269.86px 1314.7px 1337.1px 1385.94px 1428.13px 1478.71px 1532.2px 1585.69px 1608.08px 1661.57px 1710.42px 1759.26px 1785.65px 1842.42px 1897.15px 1946px 1998.16px " y="221.819px 221.819px 221.819px 221.819px 221.819px 221.819px 221.819px 221.819px 221.819px 221.819px 221.819px 221.819px 221.819px 221.819px 221.819px 221.819px 221.819px 221.819px 221.819px 221.819px 221.819px 221.819px 221.819px 221.819px 221.819px 221.819px 221.819px 221.819px 221.819px 221.819px 221.819px 221.819px 221.819px 221.819px 221.819px 221.819px 221.819px 221.819px 221.819px 221.819px 221.819px ">ULL STACK DEVELOPER, FULL STACK DESIGNER,</tspan></text>
        <text x="144.322px" y="332.07px" style="font-family:'ArialRoundedMTBold', 'Arial Rounded MT Bold', sans-serif;font-size:63.435px;fill:white;">S<tspan x="193.166px 249.941px 294.79px 340.971px 407.006px 459.165px 511.324px 560.169px 582.562px 631.407px 686.137px 742.911px 769.299px 824.029px 872.874px 921.719px 973.878px 996.27px 1051px 1073.39px 1126.88px 1183.66px 1238.39px 1284.57px 1333.41px 1388.14px 1434.33px 1456.72px 1510.21px 1562.37px 1611.21px 1657.8px 1703.14px 1759.91px " y="332.07px 332.07px 332.07px 332.07px 332.07px 332.07px 332.07px 332.07px 332.07px 332.07px 332.07px 332.07px 332.07px 332.07px 332.07px 332.07px 332.07px 332.07px 332.07px 332.07px 332.07px 332.07px 332.07px 332.07px 332.07px 332.07px 332.07px 332.07px 332.07px 332.07px 332.07px 332.07px 332.07px 332.07px ">OFTWARE ENGINEER &amp; CONTENT CREATOR</tspan></text>
    </g>
</svg>
